<svg width="36" height="37" viewBox="0 0 36 37" fill="none" xmlns="http://www.w3.org/2000/svg">
<path d="M0 9.63636H6.09231V21.2273H11.6308V3.5H23.5385V3.50304C23.6305 3.50102 23.7228 3.5 23.8154 3.5C30.5448 3.5 36 8.87258 36 15.5C36 20.6602 32.6928 25.0596 28.0521 26.7547L35.7231 33.5H27.4154L22.5 29.1791V21.5H23.5385V21.4755C23.7209 21.4917 23.9056 21.5 24.0923 21.5C27.457 21.5 30.1846 18.8137 30.1846 15.5C30.1846 12.1863 27.457 9.5 24.0923 9.5C23.9056 9.5 23.7209 9.50827 23.5385 9.52446V9.5H17.7231V21.5H17.7246V24.9813L17.7231 24.98V33.5H11.6308V27.3636H6.09231V33.5H0V9.63636Z" fill="url(#paint0_linear_361_11839)"/>
<defs>
<linearGradient id="paint0_linear_361_11839" x1="0" y1="18.5" x2="36" y2="18.5" gradientUnits="userSpaceOnUse">
<stop stop-color="#293EFF"/>
<stop offset="1" stop-color="#FF8080"/>
</linearGradient>
</defs>
</svg>
