<svg width="40" height="33" viewBox="0 0 40 33" fill="none" xmlns="http://www.w3.org/2000/svg">
<path d="M0 8.62123H6.76923V18.9243H12.9231V3.16669H26.1538V3.16939C26.2561 3.16759 26.3587 3.16669 26.4615 3.16669C33.9386 3.16669 40 7.94232 40 13.8334C40 18.4202 36.3254 22.3308 31.169 23.8375L39.6923 29.8334H30.4615L25 25.9926V19.1667H26.1538V19.1449C26.3565 19.1593 26.5618 19.1667 26.7692 19.1667C30.5078 19.1667 33.5385 16.7789 33.5385 13.8334C33.5385 10.8878 30.5078 8.50002 26.7692 8.50002C26.5618 8.50002 26.3565 8.50737 26.1538 8.52176V8.50002H19.6923V19.1667H19.694V22.2612L19.6923 22.26V29.8334H12.9231V24.3788H6.76923V29.8334H0V8.62123Z" fill="url(#paint0_linear_680_11589)"/>
<defs>
<linearGradient id="paint0_linear_680_11589" x1="0" y1="16.5" x2="40" y2="16.5" gradientUnits="userSpaceOnUse">
<stop stop-color="#293EFF"/>
<stop offset="1" stop-color="#FF8080"/>
</linearGradient>
</defs>
</svg>
